<?xml version="1.0" standalone="no"?>
<!DOCTYPE svg>
<svg version="1.0" xmlns="http://www.w3.org/2000/svg"
 width="512.000000pt" height="512.000000pt" viewBox="0 0 512.000000 512.000000"
 preserveAspectRatio="xMidYMid meet">

<g transform="translate(0.000000,512.000000) scale(0.100000,-0.100000)"
fill="#ffffff" stroke="none">
<path d="M1955 5111 c-50 -21 -60 -46 -65 -174 l-5 -121 -90 -36 c-460 -183
-856 -561 -1065 -1016 -112 -243 -165 -469 -182 -780 l-11 -210 -46 -19 c-136
-55 -178 -77 -194 -105 -15 -25 -17 -65 -17 -330 0 -202 4 -308 11 -323 24
-47 49 -57 142 -57 l87 0 0 -117 c0 -131 15 -174 66 -193 14 -6 114 -10 222
-10 l197 0 28 -88 c16 -49 51 -133 77 -188 l48 -99 -142 -145 c-145 -148 -159
-169 -148 -227 3 -19 73 -97 221 -247 250 -253 278 -276 334 -276 37 0 47 7
188 147 l149 146 93 -46 c52 -25 137 -61 190 -79 l97 -33 0 -208 0 -209 28
-28 c19 -19 44 -30 73 -35 24 -3 184 -5 354 -3 280 3 313 5 337 21 42 29 48
64 48 272 l0 192 83 27 c45 15 131 50 190 78 l108 51 148 -146 c145 -145 148
-147 192 -147 l44 0 252 253 253 252 0 44 c0 44 -2 47 -147 192 l-146 148 51
108 c28 59 63 145 77 191 l27 82 199 0 c128 0 207 4 223 12 50 22 60 53 64
186 l4 122 84 0 c78 0 86 2 116 29 l33 29 3 309 c4 378 13 351 -153 424 l-110
47 -2 94 c-9 373 -76 666 -218 949 -104 208 -211 356 -384 529 -176 176 -385
317 -613 415 l-123 53 -5 113 c-3 63 -11 124 -18 136 -29 53 -25 53 -654 52
-321 0 -592 -4 -603 -8z m1063 -1083 l2 -878 -460 0 -460 0 0 880 0 880 458
-2 457 -3 3 -877z m-1128 -234 l0 -796 28 -28 c19 -19 44 -30 73 -35 24 -3
296 -5 604 -3 615 3 590 1 620 64 13 28 15 140 15 813 0 430 2 781 4 781 15 0
170 -77 249 -123 237 -140 460 -359 609 -599 111 -179 198 -405 240 -623 15
-83 22 -165 25 -337 5 -189 8 -231 22 -255 13 -20 47 -41 132 -78 l114 -51 3
-187 2 -187 -2070 0 -2070 0 0 188 0 188 112 49 c160 72 152 54 159 348 6 210
10 258 33 365 121 557 466 1001 970 1248 60 30 113 54 117 54 5 0 9 -358 9
-796z m-183 -1929 c54 -263 230 -488 476 -606 126 -60 221 -82 362 -83 187 -1
335 41 487 140 80 52 187 154 236 225 69 101 128 247 147 362 l6 37 478 0 479
0 6 -22 c3 -13 6 -38 6 -55 l0 -33 -191 0 c-241 0 -243 -1 -279 -125 -44 -150
-92 -264 -158 -377 -66 -116 -65 -120 105 -290 l138 -138 -150 -150 -150 -150
-125 124 c-141 139 -163 156 -203 156 -15 0 -87 -31 -160 -69 -122 -64 -200
-94 -350 -136 -92 -25 -97 -38 -97 -272 l0 -193 -209 0 -209 0 -4 198 c-4 241
-4 242 -111 272 -168 49 -300 104 -397 165 -55 35 -101 45 -136 30 -16 -7 -85
-70 -154 -139 -69 -69 -129 -126 -135 -126 -6 0 -75 65 -155 145 l-145 145
132 132 c134 136 153 161 153 198 0 12 -27 70 -60 129 -67 119 -107 216 -140
339 -17 63 -29 88 -52 107 -29 25 -31 25 -224 25 l-194 0 0 55 0 55 482 -2
481 -3 14 -70z m1495 69 c18 -18 -51 -190 -111 -277 -127 -184 -394 -301 -611
-268 -290 45 -507 245 -565 519 l-7 32 645 0 c354 0 646 -3 649 -6z"/>
</g>
</svg>
