<?xml version="1.0" standalone="no"?>
<!DOCTYPE svg>
<svg version="1.0" xmlns="http://www.w3.org/2000/svg"
 width="512.000000pt" height="512.000000pt" viewBox="0 0 512.000000 512.000000"
 preserveAspectRatio="xMidYMid meet">

<g transform="translate(0.000000,512.000000) scale(0.100000,-0.100000)"
fill="#8A8A8A" stroke="none">
<path d="M2340 5105 c-522 -88 -910 -538 -910 -1056 0 -82 -3 -99 -15 -99 -25
0 -88 -36 -116 -67 -44 -46 -61 -90 -60 -154 0 -76 29 -131 94 -179 l47 -35 0
-120 c0 -114 2 -123 29 -170 33 -58 92 -103 145 -112 43 -7 48 -15 66 -113 36
-194 164 -398 334 -529 l56 -43 0 -113 0 -113 -50 -11 c-28 -6 -227 -45 -443
-86 -427 -83 -555 -113 -661 -157 -223 -91 -390 -237 -467 -404 -65 -141 -64
-134 -64 -739 l0 -550 26 -55 c33 -70 99 -136 169 -169 l55 -26 1985 0 1985 0
67 33 c73 36 123 86 160 161 21 43 23 60 26 258 3 203 3 212 -17 232 -28 28
-82 28 -107 0 -17 -19 -20 -43 -24 -218 -5 -194 -6 -198 -32 -238 -49 -74 -82
-83 -320 -83 l-206 0 -4 383 c-5 444 -7 454 -107 667 -80 169 -91 226 -91 488
l0 209 88 -18 c311 -64 513 -193 613 -391 48 -95 59 -162 59 -370 0 -121 4
-196 12 -213 18 -40 84 -50 120 -18 16 14 18 38 18 220 0 244 -12 319 -75 448
-75 156 -208 276 -409 370 -132 62 -228 87 -606 160 -184 35 -395 76 -467 91
l-133 27 0 113 0 112 48 35 c74 55 176 165 224 242 73 115 99 185 135 359 8
36 12 40 56 51 62 16 116 60 147 121 22 42 25 64 29 171 3 109 5 123 22 128
10 3 36 26 58 51 45 51 67 123 56 182 -14 79 -85 160 -155 177 -25 6 -26 8
-37 148 -23 283 -117 497 -303 691 -171 178 -393 292 -634 325 -102 14 -322
12 -416 -4z m278 -402 l-3 -268 -52 -3 -53 -3 0 270 0 271 55 0 55 0 -2 -267z
m-258 -41 c0 -322 -1 -316 73 -353 91 -47 242 -31 302 31 l30 31 3 291 3 290
39 -6 c21 -3 50 -10 64 -16 l26 -10 0 -150 c0 -178 6 -197 77 -231 39 -20 64
-24 133 -24 121 0 178 32 199 112 6 22 10 19 54 -41 56 -76 129 -226 151 -311
19 -70 41 -287 33 -310 -6 -13 -111 -15 -987 -15 l-980 0 0 95 c0 112 20 220
61 325 30 80 114 223 147 253 20 18 20 18 27 -5 29 -95 213 -140 331 -80 67
34 68 37 74 221 l5 165 40 12 c22 7 52 13 68 13 l27 1 0 -288z m795 67 l0 -64
-50 0 -50 0 -3 98 -3 98 53 -34 53 -33 0 -65z m-1087 29 l-3 -93 -50 0 -50 0
-3 61 -3 62 47 31 c26 17 51 31 56 31 5 0 7 -42 6 -92z m1651 -984 c26 -34 26
-54 0 -88 l-20 -26 -790 0 -790 0 -24 -25 c-30 -30 -32 -64 -4 -99 l20 -26
745 0 744 0 0 -90 c0 -136 -27 -170 -135 -170 -70 0 -84 -19 -95 -129 -12
-108 -52 -235 -101 -317 -49 -81 -159 -196 -240 -250 -195 -129 -448 -174
-669 -118 -149 37 -314 135 -411 243 -119 131 -198 320 -199 472 0 72 -24 96
-104 101 -51 3 -71 9 -91 28 -24 22 -25 29 -25 127 l0 103 174 0 175 0 20 26
c28 35 26 69 -4 99 l-24 25 -218 0 c-249 0 -263 3 -263 67 0 20 7 45 17 55 15
17 64 18 1154 18 l1138 0 20 -26z m-1462 -1463 c203 -68 417 -66 624 4 41 14
75 25 77 25 1 0 2 -55 2 -122 0 -142 -11 -175 -88 -255 -95 -99 -283 -220
-325 -209 -44 11 -232 144 -290 204 -84 89 -97 122 -97 265 0 64 2 117 4 117
3 0 44 -13 93 -29z m-219 -303 c45 -101 139 -199 286 -299 l78 -52 -23 -18
c-12 -9 -53 -33 -91 -54 -77 -41 -107 -41 -158 2 -30 25 -286 386 -292 412 -2
10 21 19 77 31 44 9 85 18 92 19 7 0 21 -18 31 -41z m1172 21 c36 -6 69 -15
74 -20 9 -8 -214 -340 -268 -397 -35 -37 -76 -62 -103 -62 -16 0 -163 79 -186
99 -4 4 32 34 80 66 119 81 220 183 263 268 29 55 39 67 55 63 11 -2 49 -10
85 -17z m-1195 -556 c193 -279 367 -541 387 -582 65 -131 80 -221 86 -499 l4
-242 -656 0 -656 0 0 75 0 75 386 0 c346 0 389 2 415 17 50 30 59 64 59 235 0
134 -2 157 -20 185 -34 57 -32 57 -450 57 l-385 1 3 50 c5 85 30 165 92 295
92 195 102 248 104 571 l1 214 125 26 c69 15 132 27 140 27 9 1 155 -201 365
-505z m1607 476 l116 -23 5 -265 c5 -308 11 -340 102 -526 57 -117 80 -188 91
-285 l7 -60 -393 0 c-379 0 -393 -1 -421 -21 -42 -30 -51 -74 -47 -241 3 -130
5 -150 24 -175 39 -53 40 -53 452 -53 l382 0 0 -75 0 -75 -650 0 -650 0 0 244
c0 226 2 250 25 341 14 58 42 129 68 178 33 62 551 822 708 1040 15 21 27 27
42 23 12 -2 74 -15 139 -27z m-2391 -275 c0 -261 -10 -312 -96 -489 -30 -63
-65 -153 -78 -202 -21 -84 -22 -104 -19 -408 1 -176 0 -344 -4 -372 l-5 -53
-200 0 c-158 0 -207 3 -237 15 -49 21 -81 52 -103 100 -17 37 -19 75 -19 530
0 530 4 570 55 683 72 157 239 286 470 362 63 21 226 59 233 55 1 -1 3 -101 3
-221z m1461 -178 c68 -41 136 -78 151 -81 15 -4 27 -11 27 -16 0 -5 -53 -85
-117 -177 -65 -92 -134 -200 -155 -240 l-38 -72 -34 67 c-19 38 -87 144 -151
237 -64 93 -119 175 -122 183 -3 8 2 13 14 13 11 0 80 36 154 80 74 44 137 80
141 80 4 0 62 -33 130 -74z m-802 -951 l0 -95 -355 0 -355 0 0 95 0 95 355 0
355 0 0 -95z m2050 0 l0 -95 -355 0 -355 0 0 95 0 95 355 0 355 0 0 -95z"/>
</g>
</svg>
