<?xml version="1.0" standalone="no"?>
<!DOCTYPE svg>
<svg version="1.0" xmlns="http://www.w3.org/2000/svg"
 width="512.000000pt" height="512.000000pt" viewBox="0 0 512.000000 512.000000"
 preserveAspectRatio="xMidYMid meet">

<g transform="translate(0.000000,512.000000) scale(0.100000,-0.100000)"
fill="#8A8A8A" stroke="none">
<path d="M1360 5027 c-49 -16 -133 -102 -148 -153 -7 -24 -12 -100 -12 -177
l0 -135 -109 -4 c-118 -3 -141 -12 -185 -72 -19 -25 -21 -42 -21 -166 0 -124
2 -141 21 -166 44 -60 67 -69 185 -72 l109 -4 0 -159 0 -159 -80 0 -80 0 0
-960 0 -960 -80 0 -80 0 0 -80 0 -80 -169 0 -169 0 -12 30 c-14 34 -77 95
-109 105 -20 6 -21 12 -21 176 l0 169 -80 0 -80 0 0 -169 0 -169 -30 -12 c-68
-28 -130 -129 -130 -210 0 -81 62 -182 130 -210 l30 -12 0 -169 0 -169 80 0
80 0 0 169 0 169 30 12 c34 14 95 77 105 109 6 20 12 21 176 21 l169 0 0 -80
0 -80 80 0 80 0 0 -240 0 -240 -160 0 -160 0 0 -240 0 -240 169 0 169 0 39
-157 39 -158 384 0 384 0 39 158 39 157 898 0 898 0 39 -157 39 -158 384 0
384 0 39 158 39 157 169 0 169 0 0 240 0 240 -85 0 c-65 0 -85 3 -85 14 0 7
-16 45 -35 83 -43 86 -103 144 -193 186 l-67 32 -655 0 -655 0 -67 -32 c-90
-42 -150 -100 -193 -186 -19 -38 -35 -76 -35 -83 0 -12 -82 -14 -485 -14
l-485 0 0 240 0 240 80 0 80 0 0 240 0 240 -80 0 -80 0 0 409 0 409 400 100
400 100 7 -27 c19 -79 89 -158 162 -179 63 -19 113 -14 175 16 l56 29 0 -269
0 -268 80 0 80 0 0 -240 0 -240 120 0 120 0 0 -160 0 -160 80 0 80 0 0 160 0
160 120 0 120 0 0 240 0 240 320 0 320 0 0 271 0 270 28 -19 c96 -67 210 -54
297 33 102 101 102 229 0 330 -87 87 -201 100 -297 33 l-28 -19 0 430 0 431
-160 0 -160 0 0 80 0 80 80 0 80 0 0 136 c0 78 -5 154 -12 178 -16 55 -99 138
-154 154 -58 17 -730 17 -788 0 -55 -16 -138 -99 -154 -154 -7 -24 -12 -100
-12 -178 l0 -136 80 0 80 0 0 -80 0 -80 -160 0 -160 0 0 -53 0 -53 -580 -168
c-319 -92 -589 -170 -600 -173 -19 -5 -20 0 -20 141 l0 146 -80 0 -80 0 0 159
0 159 109 4 c118 3 141 12 185 72 19 25 21 42 21 166 0 124 -2 141 -21 166
-44 60 -67 69 -185 72 l-109 4 0 135 c0 76 -5 153 -12 175 -17 59 -88 133
-145 152 -55 19 -267 21 -323 3z m295 -172 c24 -23 25 -29 25 -160 l0 -135
-160 0 -160 0 0 135 c0 131 1 137 25 160 23 24 31 25 135 25 104 0 112 -1 135
-25z m345 -535 l0 -80 -480 0 -480 0 0 80 0 80 480 0 480 0 0 -80z m2295 55
c21 -20 25 -34 25 -80 l0 -55 -400 0 -400 0 0 55 c0 46 4 60 25 80 l24 25 351
0 351 0 24 -25z m-2615 -455 l0 -160 -160 0 -160 0 0 160 0 160 160 0 160 0 0
-160z m2480 80 l0 -80 -240 0 -240 0 0 80 0 80 240 0 240 0 0 -80z m320 -640
l0 -400 -85 0 c-65 0 -85 3 -85 14 0 7 -16 45 -35 83 -43 86 -103 144 -193
186 -61 29 -76 32 -162 32 -86 0 -101 -3 -162 -32 -90 -42 -150 -100 -193
-186 -19 -38 -35 -76 -35 -83 0 -11 -20 -14 -85 -14 l-85 0 0 400 0 400 560 0
560 0 0 -400z m-1280 -6 l0 -295 -27 19 c-87 60 -214 52 -290 -20 -16 -15
-137 -49 -452 -128 l-431 -108 0 239 0 238 38 11 c20 6 289 85 597 175 308 90
561 163 563 164 1 1 2 -132 2 -295z m-1360 -634 l0 -880 -320 0 -320 0 0 880
0 880 320 0 320 0 0 -880z m2154 388 c86 -26 166 -136 166 -228 0 -124 -116
-240 -240 -240 -63 0 -114 23 -165 75 -102 101 -102 229 0 330 70 71 145 90
239 63z m-899 -173 c16 -15 25 -36 25 -55 0 -19 -9 -40 -25 -55 -15 -16 -36
-25 -55 -25 -19 0 -40 9 -55 25 -16 15 -25 36 -25 55 0 19 9 40 25 55 15 16
36 25 55 25 19 0 40 -9 55 -25z m1760 0 c16 -15 25 -36 25 -55 0 -19 -9 -40
-25 -55 -15 -16 -36 -25 -55 -25 -19 0 -40 9 -55 25 -16 15 -25 36 -25 55 0
19 9 40 25 55 15 16 36 25 55 25 19 0 40 -9 55 -25z m-1325 -149 c0 -7 16 -45
35 -83 43 -86 103 -144 193 -186 61 -29 76 -32 162 -32 86 0 101 3 162 32 90
42 150 100 193 186 19 38 35 76 35 83 0 11 20 14 85 14 l85 0 0 -240 0 -240
-560 0 -560 0 0 240 0 240 85 0 c65 0 85 -3 85 -14z m310 -786 l0 -160 -160 0
-160 0 0 160 0 160 160 0 160 0 0 -160z m-3465 -345 c50 -49 15 -135 -55 -135
-41 0 -80 39 -80 80 0 41 39 80 80 80 19 0 40 -9 55 -25z m1625 -55 l0 -80
-480 0 -480 0 0 80 0 80 480 0 480 0 0 -80z m-160 -480 l0 -240 -320 0 -320 0
0 240 0 240 320 0 320 0 0 -240z m2711 -92 c60 -17 149 -103 149 -143 0 -3
-351 -5 -780 -5 -429 0 -780 3 -780 8 0 35 85 118 142 139 46 16 1214 18 1269
1z m329 -388 l0 -80 -2000 0 -2000 0 0 80 0 80 2000 0 2000 0 0 -80z m-3082
-320 l-20 -80 -258 0 -258 0 -20 80 -20 80 298 0 298 0 -20 -80z m2720 0 l-20
-80 -258 0 -258 0 -20 80 -20 80 298 0 298 0 -20 -80z"/>
<path d="M3520 3520 l0 -80 80 0 80 0 0 80 0 80 -80 0 -80 0 0 -80z"/>
<path d="M3840 3520 l0 -80 80 0 80 0 0 80 0 80 -80 0 -80 0 0 -80z"/>
<path d="M4160 3520 l0 -80 80 0 80 0 0 80 0 80 -80 0 -80 0 0 -80z"/>
<path d="M3865 2935 c-16 -15 -25 -36 -25 -55 0 -19 9 -40 25 -55 15 -16 36
-25 55 -25 19 0 40 9 55 25 16 15 25 36 25 55 0 19 -9 40 -25 55 -15 16 -36
25 -55 25 -19 0 -40 -9 -55 -25z"/>
</g>
</svg>
