<?xml version="1.0" standalone="no"?>
<!DOCTYPE svg >
<svg version="1.0" xmlns="http://www.w3.org/2000/svg"
 width="512.000000pt" height="512.000000pt" viewBox="0 0 512.000000 512.000000"
 preserveAspectRatio="xMidYMid meet">

<g transform="translate(0.000000,512.000000) scale(0.100000,-0.100000)"
fill="#8A8A8A" stroke="none">
<path d="M2345 4935 c-50 -49 -15 -135 55 -135 41 0 80 39 80 80 0 41 -39 80
-80 80 -19 0 -40 -9 -55 -25z"/>
<path d="M4146 4950 c-63 -16 -153 -70 -197 -117 -22 -24 -55 -74 -72 -111
l-32 -67 -3 -1295 -2 -1294 165 -416 c100 -250 174 -422 187 -433 26 -22 70
-22 96 1 13 10 87 182 186 432 l166 415 0 703 0 703 -25 24 c-32 33 -78 33
-110 0 l-25 -24 0 -656 0 -655 -80 0 -80 0 0 920 0 920 80 0 80 0 0 -135 c0
-131 1 -137 25 -160 32 -33 78 -33 111 0 l25 25 -3 463 -3 463 -37 76 c-68
136 -188 217 -336 224 -42 2 -94 -1 -116 -6z m168 -162 c55 -16 138 -99 154
-154 7 -23 12 -67 12 -98 l0 -56 -240 0 -240 0 0 56 c0 87 18 133 75 189 70
71 145 90 239 63z m166 -548 l0 -80 -240 0 -240 0 0 80 0 80 240 0 240 0 0
-80z m-320 -1160 l0 -920 -80 0 -80 0 0 920 0 920 80 0 80 0 0 -920z m277
-1092 c-3 -7 -17 -43 -32 -80 l-27 -68 -138 0 -138 0 -27 68 c-15 37 -29 73
-32 80 -4 9 39 12 197 12 158 0 201 -3 197 -12z m-131 -325 c-33 -91 -60 -153
-66 -153 -6 0 -33 62 -66 153 -5 15 2 17 66 17 64 0 71 -2 66 -17z"/>
<path d="M1865 4805 c-41 -40 -30 -96 23 -124 47 -25 112 17 112 71 0 39 -40
78 -80 78 -19 0 -40 -9 -55 -25z"/>
<path d="M2825 4805 c-41 -40 -30 -96 23 -124 47 -25 112 17 112 71 0 39 -40
78 -80 78 -19 0 -40 -9 -55 -25z"/>
<path d="M2260 4624 c-99 -21 -175 -53 -254 -104 -368 -244 -434 -758 -138
-1080 51 -57 67 -100 36 -100 -8 0 -39 -24 -67 -52 -73 -73 -93 -148 -65 -240
14 -48 76 -121 118 -138 26 -11 30 -18 30 -49 0 -154 115 -332 262 -405 l68
-35 -48 -40 c-68 -59 -190 -115 -326 -150 -66 -17 -138 -42 -161 -55 -58 -35
-132 -117 -163 -184 -24 -50 -27 -70 -27 -157 0 -93 2 -105 33 -167 41 -85
128 -167 209 -199 48 -19 82 -24 200 -27 141 -4 142 -4 168 22 30 30 33 74 6
107 -18 23 -27 24 -159 29 -133 5 -141 7 -188 35 -30 19 -60 49 -79 79 -26 43
-30 59 -30 120 0 59 5 79 27 117 38 65 86 93 218 129 213 58 321 117 447 248
63 65 79 76 120 83 27 5 80 25 119 44 138 68 236 207 258 366 9 72 12 79 38
90 66 27 128 129 128 209 0 81 -62 182 -130 210 -42 17 -39 47 10 95 117 115
200 319 200 495 0 123 -53 307 -107 371 -34 40 -92 41 -122 3 -27 -34 -26 -54
3 -112 48 -96 61 -151 61 -262 0 -164 -48 -279 -166 -399 -65 -66 -69 -73 -69
-116 l0 -45 -36 0 c-37 0 -37 0 -31 38 3 20 20 168 38 329 30 274 31 294 15
318 -27 42 -58 42 -188 -1 l-118 -38 -118 38 c-130 43 -161 43 -188 1 -16 -24
-15 -44 15 -318 18 -161 35 -309 38 -329 6 -38 6 -38 -31 -38 l-36 0 0 45 c0
43 -4 50 -70 117 -110 111 -170 252 -170 401 1 255 185 484 436 543 122 29
268 8 392 -55 52 -26 72 -26 106 0 20 16 26 29 26 59 0 48 -31 76 -127 115
-133 53 -283 68 -413 39z m72 -766 l68 -22 68 22 c38 12 71 22 73 22 3 0 -7
-109 -22 -242 -16 -134 -28 -251 -28 -260 -1 -16 -12 -18 -91 -18 -79 0 -90 2
-91 18 0 9 -12 126 -28 260 -15 133 -25 242 -22 242 2 0 35 -10 73 -22z m523
-683 c16 -15 25 -36 25 -55 0 -19 -9 -40 -25 -55 l-24 -25 -431 0 -431 0 -24
25 c-16 15 -25 36 -25 55 0 19 9 40 25 55 l24 25 431 0 431 0 24 -25z m-140
-342 c-8 -53 -41 -125 -79 -170 -14 -16 -53 -45 -88 -64 -58 -31 -70 -34 -148
-34 -78 0 -90 3 -148 34 -95 51 -152 131 -167 234 l-7 47 322 0 322 0 -7 -47z"/>
<path d="M1515 4455 c-70 -69 31 -182 103 -115 28 27 37 62 21 92 -28 53 -84
64 -124 23z"/>
<path d="M3192 4473 c-7 -3 -19 -18 -28 -35 -42 -81 58 -157 121 -93 63 62 -9
162 -93 128z"/>
<path d="M1385 3975 c-50 -49 -15 -135 55 -135 41 0 80 39 80 80 0 41 -39 80
-80 80 -19 0 -40 -9 -55 -25z"/>
<path d="M3305 3975 c-16 -15 -25 -36 -25 -55 0 -19 9 -40 25 -55 15 -16 36
-25 55 -25 19 0 40 9 55 25 16 15 25 36 25 55 0 19 -9 40 -25 55 -15 16 -36
25 -55 25 -19 0 -40 -9 -55 -25z"/>
<path d="M605 3828 c-89 -16 -204 -80 -278 -153 -77 -76 -138 -190 -156 -289
-15 -83 -15 -2689 0 -2772 17 -95 78 -210 149 -282 70 -70 121 -103 219 -141
l66 -26 2153 -3 2153 -2 24 24 25 25 0 1391 0 1391 -25 24 c-32 33 -78 33
-110 0 l-25 -24 0 -1336 0 -1335 -2087 2 -2088 3 -67 32 c-93 44 -151 100
-196 191 -35 72 -37 81 -37 172 0 91 2 100 37 172 45 91 103 147 196 191 61
29 76 32 162 32 86 0 101 -3 162 -32 135 -64 222 -185 235 -328 5 -53 12 -74
29 -92 31 -31 78 -30 109 2 l25 24 0 1096 0 1095 135 0 c131 0 137 1 160 25
33 32 33 78 0 110 -23 24 -29 25 -160 25 l-135 0 0 143 c0 178 -11 240 -61
344 -108 226 -359 349 -614 301z m279 -186 c91 -42 149 -100 194 -190 l37 -76
3 -1129 c2 -913 0 -1128 -10 -1120 -116 92 -195 129 -307 145 -152 22 -320
-23 -431 -117 l-45 -38 -3 224 c-1 123 -1 631 0 1129 l3 905 32 67 c40 85 97
147 172 186 78 42 122 52 213 48 61 -3 92 -11 142 -34z"/>
<path d="M1515 3495 c-70 -69 31 -182 103 -115 28 27 37 62 21 92 -28 53 -84
64 -124 23z"/>
<path d="M3192 3513 c-7 -3 -19 -18 -28 -35 -42 -81 58 -157 121 -93 63 62 -9
162 -93 128z"/>
<path d="M3145 3015 c-16 -15 -25 -36 -25 -55 0 -19 9 -40 25 -55 l24 -25 231
0 231 0 24 25 c16 15 25 36 25 55 0 19 -9 40 -25 55 l-24 25 -231 0 -231 0
-24 -25z"/>
<path d="M2745 2215 c-23 -22 -25 -32 -25 -107 l0 -83 -39 -22 -39 -23 -69 40
c-37 22 -78 40 -90 40 -36 0 -66 -37 -152 -187 -110 -193 -110 -203 12 -274
56 -33 57 -34 57 -79 0 -45 -1 -46 -57 -79 -84 -49 -93 -59 -93 -101 0 -44 33
-80 74 -80 28 0 202 97 226 125 10 11 14 52 14 132 2 133 -3 144 -78 184 -25
13 -46 28 -46 32 0 4 17 37 37 72 l37 64 54 -31 c66 -38 98 -38 149 -1 22 15
62 39 90 52 60 28 73 51 73 131 l0 60 80 0 80 0 0 -67 c0 -38 6 -75 13 -84 7
-9 37 -29 67 -44 30 -15 69 -37 85 -50 51 -38 67 -38 136 -2 l64 34 38 -63
c20 -34 37 -66 37 -71 0 -4 -20 -19 -44 -32 -77 -40 -79 -47 -80 -178 -2 -133
3 -144 78 -184 25 -13 46 -28 46 -32 0 -4 -16 -37 -37 -72 l-36 -63 -65 34
c-71 38 -83 37 -142 -5 -20 -14 -59 -37 -87 -50 -60 -28 -73 -51 -73 -131 l0
-60 -80 0 -80 0 0 68 c0 37 -6 74 -13 83 -7 9 -37 29 -67 44 -30 15 -70 39
-88 53 -18 14 -46 25 -61 25 -29 0 -176 -79 -218 -116 -34 -30 -32 -89 3 -116
38 -30 60 -26 137 19 l69 40 39 -23 39 -22 0 -83 c0 -75 2 -85 25 -107 24 -25
26 -25 215 -25 189 0 191 0 215 25 23 22 25 32 25 107 l0 83 40 22 40 22 68
-40 c36 -21 77 -39 89 -39 36 0 66 37 152 187 110 193 110 203 -11 274 -57 33
-58 34 -58 79 0 45 1 46 58 79 121 71 121 81 11 274 -86 150 -116 187 -152
187 -12 0 -53 -18 -89 -39 l-68 -40 -40 22 -40 22 0 83 c0 75 -2 85 -25 107
-24 25 -26 25 -215 25 -189 0 -191 0 -215 -25z"/>
<path d="M2880 1747 c-49 -16 -133 -102 -148 -153 -28 -94 -8 -169 63 -239
102 -103 243 -101 338 5 93 103 90 228 -8 325 -70 71 -152 91 -245 62z m135
-172 c50 -49 15 -135 -55 -135 -41 0 -80 39 -80 80 0 41 39 80 80 80 19 0 40
-9 55 -25z"/>
<path d="M1760 1027 c-49 -16 -133 -102 -148 -153 -28 -94 -8 -169 63 -239
101 -102 229 -102 330 0 102 101 102 229 0 330 -70 71 -152 91 -245 62z m135
-172 c50 -49 15 -135 -55 -135 -19 0 -40 9 -55 25 -16 15 -25 36 -25 55 0 19
9 40 25 55 15 16 36 25 55 25 19 0 40 -9 55 -25z"/>
<path d="M4189 1021 c-22 -18 -24 -28 -29 -149 -5 -141 -12 -160 -74 -206 -27
-20 -42 -21 -558 -26 l-530 -5 -19 -24 c-27 -33 -24 -77 6 -107 l25 -25 537 3
538 3 51 27 c76 40 107 70 144 140 33 61 34 67 38 200 4 136 4 137 -21 162
-31 31 -75 34 -108 7z"/>
</g>
</svg>
